<svg width="58" height="68" viewBox="0 0 58 68" fill="none" xmlns="http://www.w3.org/2000/svg">
<path d="M58 17.256V41.2666C58 50.7964 50.3481 58.5226 40.91 58.5226H39.1814L30.3541 67.4298C30.0083 67.7789 29.5301 68 29 68C28.5102 68 28.0666 67.8196 27.7266 67.5171L27.5768 67.3659L27.571 67.36L18.8186 58.5226H17.0842C7.6519 58.5226 0 50.7964 0 41.2666V17.256C0 7.72622 7.6519 0 17.09 0H40.91C50.3481 0 58 7.72622 58 17.256Z" fill="#FFD666"/>
<path d="M12.9319 33.2625C11.2494 33.2625 10.2904 35.1983 11.2667 36.5961C15.0624 42.041 21.3388 45.591 28.4306 45.591C35.5225 45.591 41.7931 42.0351 45.5889 36.5961C46.5651 35.1983 45.6061 33.2625 43.9236 33.2625H12.9319Z" fill="white"/>
<path d="M22.7861 25.0218H12.6335V19.8518C12.6335 16.9978 14.9075 14.6818 17.7098 14.6818C20.5121 14.6818 22.7861 16.9978 22.7861 19.8518V25.0218Z" fill="white"/>
<path d="M44.2277 25.0218H34.0752V19.8518C34.0752 16.9978 36.3492 14.6818 39.1515 14.6818C41.9537 14.6818 44.2277 16.9978 44.2277 19.8518V25.0218Z" fill="white"/>
</svg>
